<?xml version="1.0" standalone="no"?>
<!DOCTYPE svg PUBLIC "-//W3C//DTD SVG 20010904//EN"
 "http://www.w3.org/TR/2001/REC-SVG-20010904/DTD/svg10.dtd">
<svg version="1.0" xmlns="http://www.w3.org/2000/svg"
 width="533.000000pt" height="411.000000pt" viewBox="0 0 533.000000 411.000000"
 preserveAspectRatio="xMidYMid meet">
<metadata>
Created by potrace 1.16, written by Peter Selinger 2001-2019
</metadata>
<g id="a" transform="translate(0.000000,411.000000) scale(0.100000,-0.100000)"
fill="#000000" stroke="none">
<path id="slotMachine_screen" d="M4898 4020 c-20 -11 -50 -36 -65 -57 l-28 -36 0 -617 0 -617 28 -36
c40 -53 93 -77 167 -77 89 0 145 32 181 102 18 35 19 68 19 628 0 570 -1 592
-20 630 -11 21 -36 51 -57 67 -31 24 -47 28 -112 31 -61 2 -84 -2 -113 -18z"/>
<path id="slotMachine_body" fill="red" d="M753 3674 c-24 -14 -54 -44 -68 -68 l-25 -43 0 -286 0 -285 -138 -4
c-134 -3 -140 -4 -188 -33 -30 -19 -60 -49 -79 -79 l-30 -49 -5 -828 -5 -828
-41 -30 c-27 -19 -52 -49 -68 -84 l-27 -54 3 -235 3 -235 30 -49 c19 -30 49
-60 79 -79 l49 -30 184 -3 183 -3 0 -140 0 -139 1730 0 1730 0 0 139 0 139
118 6 c272 12 336 33 397 130 l30 49 3 227 3 226 -28 54 c-20 39 -42 64 -75
85 l-47 30 0 161 -1 161 38 11 c62 19 117 65 146 123 l26 53 0 321 0 321 -26
53 c-29 58 -84 104 -145 122 l-38 12 -3 157 c-3 154 -3 157 -33 206 -19 30
-49 60 -79 79 -48 29 -53 30 -193 33 l-143 3 0 286 0 286 -25 43 c-15 26 -43
54 -69 69 l-43 25 -1544 0 -1544 0 -42 -26z m607 -359 c41 -21 60 -53 60 -100
0 -47 -19 -79 -60 -100 -58 -30 -140 -12 -174 37 -18 26 -21 90 -5 119 27 52
120 75 179 44z m360 0 c41 -21 60 -53 60 -100 0 -47 -19 -79 -60 -100 -58 -30
-140 -12 -174 37 -18 26 -21 90 -5 119 27 52 120 75 179 44z m360 0 c41 -21
60 -53 60 -100 0 -47 -19 -79 -60 -100 -58 -30 -140 -12 -174 37 -18 26 -21
90 -5 119 27 52 120 75 179 44z m360 0 c41 -21 60 -53 60 -100 0 -47 -19 -79
-60 -100 -58 -30 -140 -12 -174 37 -18 26 -21 90 -5 119 27 52 120 75 179 44z
m360 0 c41 -21 60 -53 60 -100 0 -47 -19 -79 -60 -100 -58 -30 -140 -12 -174
37 -18 26 -21 90 -5 119 27 52 120 75 179 44z m360 0 c41 -21 60 -53 60 -100
0 -47 -19 -79 -60 -100 -58 -30 -140 -12 -174 37 -18 26 -21 90 -5 119 27 52
120 75 179 44z m360 0 c41 -21 60 -53 60 -100 0 -47 -19 -79 -60 -100 -58 -30
-140 -12 -174 37 -18 26 -21 90 -5 119 27 52 120 75 179 44z m580 -1335 l0
-730 -1765 0 -1765 0 0 730 0 730 1765 0 1765 0 0 -730z m-198 -1137 c23 -20
24 -80 1 -105 -15 -17 -76 -18 -1531 -18 -1396 0 -1517 1 -1534 17 -23 20 -24
80 -1 105 15 17 76 18 1531 18 1396 0 1517 -1 1534 -17z"/>
</g>
</svg>
